REM DIRINDEX 1
REM DIRNAME cjc069
TITLE ""
FILE "Disk1Track07.mp3" MP3
  TRACK 01 AUDIO
    TITLE "1:cjc069_0047"
    INDEX 01 00:00:00
  TRACK 02 AUDIO
    TITLE "1:cjc069_0048"
    INDEX 01 00:02:24
  TRACK 03 AUDIO
    TITLE "1:cjc069_0049"
    INDEX 01 00:08:11
  TRACK 04 AUDIO
    TITLE "1:cjc069_0050"
    INDEX 01 00:18:39
  TRACK 05 AUDIO
    TITLE "0:"
    INDEX 01 00:33:50
